<svg id="svg" version="1.1" xmlns="http://www.w3.org/2000/svg" xmlns:xlink="http://www.w3.org/1999/xlink" width="400" height="400" viewBox="0, 0, 400,400"><g id="svgg"><path id="path0" d="M126.400 5.569 C 125.413 6.303,124.256 7.037,121.628 8.600 C 120.887 9.040,119.723 9.862,119.041 10.427 C 118.358 10.992,117.215 11.689,116.500 11.976 C 115.785 12.263,115.200 12.637,115.200 12.809 C 115.200 12.981,114.615 13.500,113.900 13.963 C 111.627 15.436,109.275 17.197,105.566 20.200 C 104.751 20.860,103.409 21.940,102.583 22.600 C 101.756 23.260,100.792 24.089,100.440 24.442 C 100.088 24.796,98.270 26.382,96.400 27.969 C 92.039 31.668,82.483 41.097,81.774 42.400 C 81.475 42.950,80.324 44.294,79.215 45.386 C 78.107 46.478,77.200 47.472,77.200 47.594 C 77.200 47.716,76.210 48.893,75.000 50.208 C 73.791 51.524,72.699 52.915,72.573 53.300 C 72.448 53.685,72.199 54.000,72.019 54.000 C 71.839 54.000,70.684 55.395,69.453 57.100 C 68.222 58.805,67.027 60.422,66.797 60.693 C 66.568 60.965,66.007 61.820,65.551 62.593 C 65.094 63.367,64.595 64.000,64.440 64.000 C 64.286 64.000,63.759 64.765,63.270 65.700 C 62.436 67.295,60.941 69.575,59.997 70.693 C 59.768 70.965,59.195 71.865,58.723 72.693 C 58.251 73.522,57.558 74.560,57.182 75.000 C 56.806 75.440,56.282 76.475,56.018 77.300 C 55.754 78.125,55.370 78.800,55.164 78.800 C 54.958 78.800,54.330 79.745,53.769 80.900 C 52.228 84.068,51.053 86.230,50.536 86.847 C 50.280 87.151,49.755 88.210,49.369 89.200 C 48.983 90.190,48.361 91.450,47.986 92.000 C 47.612 92.550,47.178 93.450,47.022 94.000 C 46.866 94.550,46.236 95.990,45.620 97.200 C 45.005 98.410,44.378 99.926,44.226 100.568 C 44.075 101.211,43.622 102.155,43.220 102.665 C 42.819 103.175,42.365 104.270,42.212 105.097 C 42.058 105.923,41.603 107.140,41.200 107.800 C 40.797 108.460,40.171 110.148,39.809 111.551 C 39.448 112.954,38.906 114.484,38.605 114.951 C 38.305 115.418,37.932 116.497,37.776 117.348 C 37.620 118.200,37.002 120.180,36.401 121.748 C 35.801 123.317,35.179 125.489,35.019 126.576 C 34.859 127.664,34.403 129.379,34.005 130.388 C 33.607 131.397,33.065 133.653,32.800 135.403 C 32.534 137.152,31.973 139.699,31.551 141.064 C 31.130 142.428,30.600 145.492,30.375 147.872 C 30.149 150.253,29.570 153.730,29.087 155.600 C 27.737 160.831,27.717 202.978,29.062 208.605 C 29.535 210.588,30.145 214.367,30.417 217.002 C 30.707 219.811,31.230 222.536,31.682 223.590 C 32.105 224.579,32.638 226.920,32.865 228.794 C 33.093 230.667,33.610 232.932,34.016 233.826 C 34.421 234.721,34.878 236.431,35.031 237.626 C 35.185 238.822,35.659 240.495,36.086 241.344 C 36.512 242.194,37.128 244.174,37.454 245.744 C 37.780 247.315,38.281 248.960,38.566 249.400 C 38.852 249.840,39.398 251.280,39.778 252.600 C 40.159 253.920,40.795 255.540,41.192 256.200 C 41.589 256.860,42.043 258.030,42.200 258.800 C 42.357 259.570,42.806 260.740,43.198 261.400 C 43.589 262.060,44.039 263.050,44.197 263.600 C 44.356 264.150,44.981 265.590,45.585 266.800 C 46.190 268.010,46.824 269.450,46.995 270.000 C 47.165 270.550,47.612 271.450,47.986 272.000 C 48.361 272.550,48.982 273.810,49.367 274.800 C 49.752 275.790,50.299 276.870,50.583 277.200 C 50.867 277.530,51.316 278.475,51.580 279.300 C 51.845 280.125,52.215 280.800,52.402 280.800 C 52.589 280.800,53.222 281.745,53.808 282.900 C 54.935 285.122,56.475 287.820,57.800 289.897 C 58.548 291.070,59.100 291.965,60.938 294.987 C 61.344 295.654,61.985 296.560,62.362 297.000 C 62.739 297.440,63.258 298.295,63.515 298.900 C 63.772 299.505,64.164 300.000,64.386 300.000 C 64.608 300.000,65.044 300.585,65.355 301.300 C 65.666 302.015,66.919 303.860,68.140 305.400 C 69.361 306.940,70.954 308.976,71.680 309.923 C 73.780 312.665,74.927 314.083,76.000 315.264 C 76.550 315.870,77.630 317.113,78.400 318.027 C 82.735 323.173,99.742 339.540,104.000 342.664 C 105.430 343.713,107.711 345.478,109.068 346.586 C 111.539 348.602,113.151 349.783,115.400 351.224 C 116.060 351.648,117.410 352.628,118.400 353.403 C 119.390 354.177,120.830 355.096,121.600 355.444 C 122.370 355.792,123.360 356.387,123.800 356.767 C 124.240 357.146,125.950 358.241,127.600 359.200 C 129.250 360.159,130.960 361.246,131.400 361.616 C 131.840 361.986,132.793 362.488,133.518 362.730 C 134.242 362.972,135.322 363.506,135.918 363.916 C 136.513 364.325,137.585 364.894,138.300 365.179 C 139.015 365.464,139.600 365.833,139.600 366.000 C 139.600 366.167,140.185 366.526,140.900 366.798 C 142.148 367.273,144.304 368.246,149.700 370.769 C 151.075 371.412,152.638 372.064,153.173 372.219 C 153.709 372.374,154.950 372.928,155.933 373.450 C 156.915 373.973,157.970 374.400,158.276 374.400 C 158.583 374.400,159.988 374.940,161.400 375.600 C 162.812 376.260,164.296 376.800,164.699 376.800 C 165.101 376.800,166.144 377.168,167.015 377.618 C 167.887 378.068,169.822 378.697,171.316 379.016 C 172.809 379.335,174.526 379.851,175.130 380.164 C 175.735 380.477,177.663 381.024,179.415 381.380 C 181.167 381.736,183.162 382.289,183.848 382.608 C 184.534 382.927,186.424 383.373,188.048 383.598 C 189.672 383.823,192.800 384.436,195.000 384.959 C 197.200 385.482,201.108 386.112,203.685 386.359 C 206.262 386.606,208.848 386.990,209.432 387.212 C 210.718 387.701,218.582 388.385,223.020 388.394 C 227.278 388.402,227.200 388.285,227.200 394.680 L 227.200 400.000 229.953 400.000 C 232.365 400.000,232.733 399.901,232.915 399.205 C 233.029 398.767,233.615 398.222,234.217 397.994 C 234.819 397.765,235.825 397.145,236.453 396.616 C 237.082 396.088,238.002 395.532,238.498 395.380 C 238.994 395.229,239.732 394.814,240.137 394.457 C 241.002 393.697,243.914 391.962,246.247 390.817 C 247.153 390.373,248.097 389.765,248.345 389.466 C 248.593 389.168,249.516 388.598,250.398 388.201 C 251.279 387.804,252.000 387.348,252.000 387.188 C 252.000 387.028,252.585 386.663,253.300 386.376 C 254.015 386.090,255.352 385.348,256.272 384.728 C 257.192 384.108,258.109 383.600,258.310 383.600 C 258.511 383.600,259.008 383.233,259.413 382.785 C 259.819 382.337,260.903 381.638,261.824 381.231 C 262.744 380.824,263.622 380.288,263.776 380.039 C 263.929 379.791,264.711 379.314,265.513 378.978 C 266.316 378.643,267.068 378.220,267.186 378.037 C 267.304 377.854,268.345 377.228,269.500 376.646 C 270.655 376.063,271.600 375.422,271.600 375.220 C 271.600 375.019,272.005 374.730,272.500 374.578 C 273.618 374.235,277.812 371.739,279.331 370.513 C 279.953 370.011,280.704 369.600,281.000 369.600 C 281.296 369.600,282.047 369.175,282.669 368.656 C 283.291 368.137,284.413 367.398,285.162 367.014 C 285.912 366.629,286.722 366.144,286.962 365.936 C 287.203 365.728,288.019 365.252,288.776 364.879 C 289.533 364.505,290.216 363.996,290.294 363.747 C 290.630 362.671,285.772 359.042,282.400 357.851 C 281.850 357.657,281.040 357.186,280.600 356.804 C 280.160 356.423,279.260 355.931,278.600 355.711 C 277.939 355.491,276.699 354.836,275.844 354.256 C 274.988 353.675,274.071 353.200,273.806 353.200 C 273.541 353.200,272.801 352.750,272.162 352.200 C 271.523 351.651,270.810 351.201,270.578 351.200 C 270.346 351.200,269.310 350.663,268.275 350.007 C 267.240 349.351,265.953 348.703,265.413 348.568 C 264.874 348.432,264.217 348.061,263.953 347.744 C 263.689 347.426,262.557 346.714,261.437 346.161 C 260.317 345.609,258.410 344.606,257.200 343.932 C 255.990 343.259,254.010 342.178,252.800 341.532 C 247.281 338.581,246.255 337.993,245.618 337.416 C 245.243 337.077,244.660 336.800,244.322 336.800 C 243.984 336.800,243.252 336.442,242.695 336.004 C 242.138 335.565,240.899 334.836,239.941 334.382 C 236.622 332.810,234.078 331.397,233.309 330.700 C 232.884 330.315,232.263 330.000,231.929 330.000 C 231.594 330.000,230.606 329.483,229.734 328.851 C 227.196 327.013,226.800 327.617,226.800 333.321 C 226.800 340.050,225.420 340.463,211.800 337.805 C 210.040 337.462,206.995 337.004,205.034 336.787 C 203.073 336.570,200.922 336.120,200.254 335.787 C 199.586 335.454,197.770 334.991,196.219 334.760 C 194.669 334.528,192.590 334.001,191.600 333.589 C 190.610 333.176,188.451 332.548,186.801 332.192 C 185.152 331.837,183.529 331.298,183.195 330.995 C 182.861 330.693,181.690 330.245,180.594 330.000 C 179.497 329.754,177.855 329.138,176.944 328.630 C 176.033 328.121,174.657 327.587,173.885 327.442 C 173.113 327.297,172.058 326.852,171.541 326.452 C 171.023 326.052,169.715 325.428,168.633 325.064 C 167.551 324.701,166.381 324.155,166.033 323.852 C 165.685 323.549,164.680 323.076,163.800 322.800 C 162.920 322.524,161.916 322.052,161.569 321.750 C 161.223 321.449,160.143 320.780,159.169 320.265 C 156.144 318.662,153.466 317.156,152.410 316.464 C 151.852 316.099,151.108 315.620,150.754 315.400 C 150.401 315.180,149.682 314.710,149.156 314.355 C 148.630 314.000,146.985 312.940,145.500 311.999 C 144.015 311.058,142.800 310.163,142.800 310.009 C 142.800 309.854,142.338 309.518,141.773 309.261 C 140.467 308.665,133.200 302.896,133.200 302.454 C 133.200 302.271,132.844 301.960,132.409 301.761 C 131.458 301.327,128.187 298.336,123.047 293.200 C 115.146 285.307,110.207 279.385,104.698 271.200 C 103.735 269.770,102.599 268.083,102.174 267.450 C 99.731 263.821,99.141 262.867,98.555 261.603 C 98.200 260.835,97.479 259.696,96.954 259.073 C 96.429 258.449,96.000 257.708,96.000 257.425 C 96.000 257.143,95.552 256.252,95.005 255.445 C 94.458 254.639,93.888 253.493,93.739 252.899 C 93.590 252.306,92.958 251.015,92.334 250.032 C 91.710 249.048,91.200 248.035,91.200 247.781 C 91.200 247.527,90.773 246.515,90.250 245.533 C 89.728 244.550,89.173 243.309,89.018 242.773 C 88.862 242.238,88.315 240.900,87.803 239.800 C 87.291 238.700,86.602 236.990,86.273 236.000 C 85.944 235.010,85.399 233.390,85.062 232.400 C 82.838 225.871,82.261 223.955,81.933 222.000 C 81.730 220.790,81.220 218.810,80.801 217.600 C 80.381 216.390,79.749 213.240,79.396 210.600 C 79.043 207.960,78.498 204.990,78.185 204.000 C 76.383 198.303,76.521 168.250,78.392 159.000 C 78.614 157.900,79.070 155.110,79.405 152.800 C 79.740 150.490,80.363 147.610,80.789 146.400 C 81.215 145.190,81.682 143.390,81.826 142.400 C 81.969 141.410,82.530 139.340,83.072 137.800 C 83.614 136.260,84.226 134.113,84.432 133.028 C 84.638 131.943,85.062 130.773,85.373 130.428 C 85.685 130.083,86.164 128.900,86.439 127.800 C 86.713 126.700,87.446 124.720,88.068 123.400 C 88.690 122.080,89.200 120.758,89.200 120.462 C 89.200 120.166,89.536 119.446,89.948 118.862 C 90.359 118.278,90.833 117.350,91.001 116.800 C 91.293 115.843,93.685 110.854,94.453 109.600 C 94.655 109.270,95.166 108.280,95.588 107.400 C 96.011 106.520,96.817 105.180,97.378 104.422 C 97.940 103.665,98.400 102.742,98.400 102.371 C 98.400 102.001,98.683 101.463,99.029 101.176 C 99.375 100.889,100.030 99.921,100.484 99.027 C 100.938 98.132,101.735 96.891,102.255 96.269 C 102.775 95.647,103.200 94.882,103.200 94.569 C 103.200 94.256,103.355 94.000,103.543 94.000 C 103.882 94.000,106.435 90.491,107.600 88.423 C 107.930 87.837,108.560 86.980,109.000 86.519 C 109.440 86.057,110.340 85.021,111.000 84.215 C 111.660 83.410,112.470 82.440,112.800 82.059 C 113.130 81.679,114.106 80.496,114.969 79.432 C 116.650 77.359,120.617 72.997,122.627 71.012 C 126.780 66.911,130.792 63.200,131.073 63.200 C 131.253 63.200,132.210 62.457,133.200 61.549 C 134.190 60.641,135.630 59.427,136.400 58.851 C 137.170 58.276,137.944 57.579,138.120 57.302 C 138.296 57.026,138.979 56.521,139.639 56.180 C 140.298 55.839,141.144 55.311,141.519 55.006 C 143.466 53.423,146.047 51.600,146.341 51.600 C 146.525 51.600,147.009 51.232,147.417 50.781 C 147.824 50.331,148.797 49.668,149.579 49.307 C 150.829 48.730,152.091 47.872,153.939 46.341 C 154.639 45.762,154.247 43.718,153.226 42.619 C 152.807 42.169,152.160 41.035,151.789 40.100 C 151.417 39.165,150.972 38.400,150.800 38.400 C 150.628 38.400,150.205 37.695,149.860 36.834 C 149.516 35.973,149.046 35.152,148.816 35.010 C 148.586 34.868,148.030 33.944,147.581 32.957 C 147.131 31.971,146.412 30.812,145.982 30.382 C 145.552 29.952,145.200 29.357,145.200 29.060 C 145.200 28.763,144.666 27.783,144.013 26.881 C 143.360 25.980,142.707 24.769,142.562 24.189 C 142.416 23.610,142.067 23.047,141.785 22.939 C 141.504 22.831,141.048 22.170,140.773 21.471 C 140.497 20.772,139.885 19.660,139.412 19.000 C 138.938 18.340,138.318 17.221,138.032 16.513 C 137.747 15.806,137.268 15.023,136.968 14.774 C 136.668 14.524,135.958 13.393,135.391 12.260 C 131.803 5.090,129.425 3.320,126.400 5.569 M176.285 78.338 C 175.938 78.756,175.719 82.959,175.514 93.161 C 175.237 106.972,174.900 114.849,173.982 129.000 C 173.740 132.740,173.455 141.912,173.351 149.383 C 173.219 158.737,173.017 163.138,172.702 163.518 C 172.197 164.127,162.009 163.973,151.000 163.190 C 137.158 162.206,133.250 161.994,124.881 161.771 C 115.053 161.509,114.800 161.560,114.800 163.815 C 114.800 164.924,115.130 165.395,116.897 166.802 C 118.196 167.836,119.332 169.183,119.883 170.341 C 120.396 171.422,121.296 172.520,122.015 172.945 C 123.155 173.618,128.658 178.957,132.629 183.242 C 133.525 184.209,134.776 185.360,135.409 185.800 C 136.041 186.240,137.288 187.145,138.179 187.811 C 140.667 189.670,143.331 195.170,144.181 200.200 C 144.441 201.740,144.867 203.507,145.127 204.126 C 145.387 204.745,145.600 205.452,145.600 205.697 C 145.600 206.284,148.443 210.400,148.848 210.400 C 149.022 210.400,150.178 211.375,151.419 212.567 C 152.659 213.758,154.242 214.959,154.937 215.234 C 156.520 215.862,163.599 219.994,164.384 220.749 C 166.362 222.651,169.613 222.891,170.845 221.225 C 171.323 220.579,172.215 219.842,172.829 219.588 C 173.984 219.110,174.800 217.751,175.584 215.000 C 176.373 212.233,178.155 209.052,179.202 208.543 C 181.371 207.486,184.719 207.044,186.841 207.534 C 187.952 207.790,190.902 208.000,193.396 208.000 L 197.931 208.000 200.000 210.600 C 201.138 212.030,202.210 213.200,202.383 213.200 C 203.571 213.200,210.800 221.189,210.800 222.501 C 210.800 223.272,211.061 224.118,211.379 224.383 C 211.697 224.647,212.273 225.704,212.657 226.732 C 213.042 227.759,213.755 229.230,214.242 230.000 C 214.729 230.770,215.253 232.030,215.407 232.800 C 215.808 234.810,217.025 236.647,219.860 239.523 C 221.227 240.911,222.457 242.550,222.592 243.165 C 222.964 244.856,223.679 245.723,227.841 249.522 C 229.190 250.754,229.534 251.375,229.774 253.010 C 229.935 254.105,230.411 255.788,230.833 256.751 C 231.255 257.714,231.600 259.157,231.600 259.958 C 231.600 260.890,231.994 261.988,232.694 263.007 C 234.307 265.357,236.352 269.538,236.641 271.076 C 236.928 272.610,237.317 272.865,240.479 273.593 C 241.901 273.920,243.066 274.472,243.576 275.059 C 244.169 275.741,244.817 276.000,245.927 276.000 C 247.036 276.000,248.003 276.386,249.428 277.400 C 250.511 278.170,251.578 278.801,251.799 278.802 C 252.019 278.804,252.729 279.081,253.375 279.417 C 254.795 280.158,256.966 280.292,257.698 279.684 C 258.413 279.091,262.582 280.599,264.344 282.087 C 267.820 285.023,273.273 279.538,270.630 275.764 C 270.258 275.234,270.187 274.750,270.424 274.375 C 271.316 272.965,270.727 270.389,269.580 270.689 C 268.151 271.063,267.378 270.508,268.146 269.660 C 268.911 268.815,269.017 265.798,268.365 263.448 L 267.934 261.897 267.173 263.148 C 266.406 264.409,265.471 264.762,264.984 263.974 C 264.527 263.235,265.191 260.857,265.918 260.626 C 267.124 260.243,269.193 254.905,269.198 252.162 C 269.199 251.450,269.527 250.628,269.971 250.226 C 270.395 249.843,270.862 248.818,271.009 247.949 C 271.183 246.914,271.608 246.151,272.238 245.738 C 272.767 245.392,273.200 244.895,273.200 244.634 C 273.200 244.124,278.256 238.936,279.349 238.325 C 279.711 238.122,280.476 237.536,281.049 237.023 C 281.622 236.511,282.468 235.755,282.930 235.345 C 284.942 233.557,287.796 231.600,288.394 231.600 C 288.751 231.600,289.895 231.060,290.936 230.400 C 291.976 229.740,292.988 229.200,293.183 229.200 C 293.379 229.200,294.047 228.775,294.669 228.255 C 295.291 227.735,296.250 227.170,296.800 227.000 C 297.829 226.682,299.653 225.366,301.531 223.587 C 303.884 221.357,308.536 217.520,309.343 217.143 C 309.814 216.923,310.677 215.964,311.259 215.012 C 312.021 213.768,312.670 213.204,313.569 213.007 C 314.257 212.856,315.322 212.309,315.936 211.792 C 316.551 211.275,317.582 210.724,318.227 210.568 C 318.872 210.411,319.850 209.975,320.400 209.599 C 320.950 209.222,322.210 208.649,323.200 208.325 C 324.915 207.764,325.010 207.652,325.210 205.968 C 325.326 204.990,325.862 203.604,326.410 202.866 C 327.354 201.594,327.400 201.269,327.400 195.866 C 327.400 190.613,327.469 190.083,328.352 188.600 C 330.177 185.534,330.187 179.826,328.372 177.877 C 327.953 177.428,327.499 176.467,327.363 175.743 C 327.227 175.019,326.702 173.980,326.197 173.434 C 325.691 172.889,325.153 171.668,325.000 170.721 C 324.685 168.761,323.218 165.963,321.582 164.200 C 320.361 162.885,320.058 159.222,319.807 142.800 C 319.755 139.390,319.687 136.292,319.656 135.916 C 319.548 134.600,318.062 133.717,315.577 133.491 C 314.263 133.372,312.487 132.909,311.630 132.462 C 310.773 132.016,309.303 131.443,308.363 131.190 C 307.423 130.937,306.015 130.296,305.234 129.765 C 304.453 129.234,303.593 128.800,303.323 128.800 C 303.053 128.800,302.401 128.334,301.873 127.765 C 300.847 126.659,300.313 126.690,296.920 128.048 C 295.811 128.492,295.540 128.469,294.889 127.880 C 293.936 127.018,293.668 127.027,291.544 127.991 C 290.585 128.426,289.150 128.786,288.356 128.791 C 287.554 128.796,285.865 129.336,284.556 130.004 C 282.110 131.255,279.759 131.205,278.911 129.884 C 278.175 128.739,277.341 128.415,276.067 128.781 C 274.994 129.088,274.617 128.994,273.646 128.177 L 272.496 127.210 271.411 128.063 C 269.622 129.470,263.421 129.337,262.154 127.864 C 261.050 126.581,260.654 126.546,259.565 127.635 C 258.234 128.966,255.823 127.826,254.200 125.096 C 253.861 124.527,252.847 124.393,247.600 124.225 C 242.069 124.047,241.331 123.941,240.760 123.243 C 240.408 122.812,239.510 122.401,238.765 122.330 C 237.743 122.232,237.213 121.882,236.605 120.903 C 236.162 120.189,235.350 119.490,234.800 119.348 C 234.250 119.206,233.614 118.945,233.387 118.768 C 233.159 118.591,232.709 118.613,232.387 118.817 C 230.788 119.828,227.717 119.264,226.853 117.800 C 226.399 117.030,225.884 116.400,225.710 116.400 C 224.443 116.400,224.322 114.703,224.378 97.643 C 224.426 83.265,224.343 80.475,223.850 79.800 C 223.299 79.046,222.637 78.984,212.333 78.729 C 206.320 78.580,200.590 78.359,199.600 78.239 C 194.921 77.671,176.775 77.748,176.285 78.338 M308.671 211.040 C 308.941 211.745,307.995 212.555,307.490 212.050 C 307.106 211.666,307.539 210.400,308.055 210.400 C 308.259 210.400,308.536 210.688,308.671 211.040 M285.200 230.619 C 285.200 231.428,284.438 231.729,283.778 231.181 C 283.346 230.823,283.305 230.555,283.624 230.171 C 284.137 229.553,285.200 229.855,285.200 230.619 " stroke="none" fill="#f9f9f9" fill-rule="evenodd"></path><path id="path1" d="M0.000 200.000 L 0.000 400.000 113.600 400.000 L 227.200 400.000 227.200 394.680 C 227.200 388.285,227.278 388.402,223.020 388.394 C 218.582 388.385,210.718 387.701,209.432 387.212 C 208.848 386.990,206.262 386.606,203.685 386.359 C 201.108 386.112,197.200 385.482,195.000 384.959 C 192.800 384.436,189.672 383.823,188.048 383.598 C 186.424 383.373,184.534 382.927,183.848 382.608 C 183.162 382.289,181.167 381.736,179.415 381.380 C 177.663 381.024,175.735 380.477,175.130 380.164 C 174.526 379.851,172.809 379.335,171.316 379.016 C 169.822 378.697,167.887 378.068,167.015 377.618 C 166.144 377.168,165.101 376.800,164.699 376.800 C 164.296 376.800,162.812 376.260,161.400 375.600 C 159.988 374.940,158.583 374.400,158.276 374.400 C 157.970 374.400,156.915 373.973,155.933 373.450 C 154.950 372.928,153.709 372.374,153.173 372.219 C 152.638 372.064,151.075 371.412,149.700 370.769 C 144.304 368.246,142.148 367.273,140.900 366.798 C 140.185 366.526,139.600 366.167,139.600 366.000 C 139.600 365.833,139.015 365.464,138.300 365.179 C 137.585 364.894,136.513 364.325,135.918 363.916 C 135.322 363.506,134.242 362.972,133.518 362.730 C 132.793 362.488,131.840 361.986,131.400 361.616 C 130.960 361.246,129.250 360.159,127.600 359.200 C 125.950 358.241,124.240 357.146,123.800 356.767 C 123.360 356.387,122.370 355.792,121.600 355.444 C 120.830 355.096,119.390 354.177,118.400 353.403 C 117.410 352.628,116.060 351.648,115.400 351.224 C 113.151 349.783,111.539 348.602,109.068 346.586 C 107.711 345.478,105.430 343.713,104.000 342.664 C 99.742 339.540,82.735 323.173,78.400 318.027 C 77.630 317.113,76.550 315.870,76.000 315.264 C 74.927 314.083,73.780 312.665,71.680 309.923 C 70.954 308.976,69.361 306.940,68.140 305.400 C 66.919 303.860,65.666 302.015,65.355 301.300 C 65.044 300.585,64.608 300.000,64.386 300.000 C 64.164 300.000,63.772 299.505,63.515 298.900 C 63.258 298.295,62.739 297.440,62.362 297.000 C 61.985 296.560,61.344 295.649,60.938 294.975 C 60.532 294.301,59.840 293.187,59.400 292.499 C 57.261 289.157,55.104 285.454,53.808 282.900 C 53.222 281.745,52.589 280.800,52.402 280.800 C 52.215 280.800,51.845 280.125,51.580 279.300 C 51.316 278.475,50.867 277.530,50.583 277.200 C 50.299 276.870,49.752 275.790,49.367 274.800 C 48.982 273.810,48.361 272.550,47.986 272.000 C 47.612 271.450,47.165 270.550,46.995 270.000 C 46.824 269.450,46.190 268.010,45.585 266.800 C 44.981 265.590,44.356 264.150,44.197 263.600 C 44.039 263.050,43.589 262.060,43.198 261.400 C 42.806 260.740,42.357 259.570,42.200 258.800 C 42.043 258.030,41.589 256.860,41.192 256.200 C 40.795 255.540,40.159 253.920,39.778 252.600 C 39.398 251.280,38.852 249.840,38.566 249.400 C 38.281 248.960,37.780 247.315,37.454 245.744 C 37.128 244.174,36.512 242.194,36.086 241.344 C 35.659 240.495,35.185 238.822,35.031 237.626 C 34.878 236.431,34.421 234.721,34.016 233.826 C 33.610 232.932,33.093 230.667,32.865 228.794 C 32.638 226.920,32.105 224.579,31.682 223.590 C 31.230 222.536,30.707 219.811,30.417 217.002 C 30.145 214.367,29.535 210.588,29.062 208.605 C 27.717 202.978,27.737 160.831,29.087 155.600 C 29.570 153.730,30.149 150.253,30.375 147.872 C 30.600 145.492,31.130 142.428,31.551 141.064 C 31.973 139.699,32.534 137.152,32.800 135.403 C 33.065 133.653,33.607 131.397,34.005 130.388 C 34.403 129.379,34.859 127.664,35.019 126.576 C 35.179 125.489,35.801 123.317,36.401 121.748 C 37.002 120.180,37.620 118.200,37.776 117.348 C 37.932 116.497,38.305 115.418,38.605 114.951 C 38.906 114.484,39.448 112.954,39.809 111.551 C 40.171 110.148,40.797 108.460,41.200 107.800 C 41.603 107.140,42.058 105.923,42.212 105.097 C 42.365 104.270,42.819 103.175,43.220 102.665 C 43.622 102.155,44.075 101.211,44.226 100.568 C 44.378 99.926,45.005 98.410,45.620 97.200 C 46.236 95.990,46.866 94.550,47.022 94.000 C 47.178 93.450,47.612 92.550,47.986 92.000 C 48.361 91.450,48.983 90.190,49.369 89.200 C 49.755 88.210,50.280 87.151,50.536 86.847 C 51.053 86.230,52.228 84.068,53.769 80.900 C 54.330 79.745,54.958 78.800,55.164 78.800 C 55.370 78.800,55.754 78.125,56.018 77.300 C 56.282 76.475,56.806 75.440,57.182 75.000 C 57.558 74.560,58.251 73.522,58.723 72.693 C 59.195 71.865,59.768 70.965,59.997 70.693 C 60.941 69.575,62.436 67.295,63.270 65.700 C 63.759 64.765,64.286 64.000,64.440 64.000 C 64.595 64.000,65.094 63.367,65.551 62.593 C 66.007 61.820,66.568 60.965,66.797 60.693 C 67.027 60.422,68.222 58.805,69.453 57.100 C 70.684 55.395,71.839 54.000,72.019 54.000 C 72.199 54.000,72.448 53.685,72.573 53.300 C 72.699 52.915,73.791 51.524,75.000 50.208 C 76.210 48.893,77.200 47.716,77.200 47.594 C 77.200 47.472,78.107 46.478,79.215 45.386 C 80.324 44.294,81.475 42.950,81.774 42.400 C 82.483 41.097,92.039 31.668,96.400 27.969 C 98.270 26.382,100.088 24.796,100.440 24.442 C 100.792 24.089,101.756 23.260,102.583 22.600 C 103.409 21.940,104.751 20.860,105.566 20.200 C 109.275 17.197,111.627 15.436,113.900 13.963 C 114.615 13.500,115.200 12.981,115.200 12.809 C 115.200 12.637,115.785 12.263,116.500 11.976 C 117.215 11.689,118.358 10.992,119.041 10.427 C 119.723 9.862,120.803 9.090,121.441 8.711 C 122.688 7.971,123.268 7.602,125.865 5.900 C 129.670 3.407,131.609 4.702,135.391 12.260 C 135.958 13.393,136.668 14.524,136.968 14.774 C 137.268 15.023,137.747 15.806,138.032 16.513 C 138.318 17.221,138.938 18.340,139.412 19.000 C 139.885 19.660,140.497 20.772,140.773 21.471 C 141.048 22.170,141.504 22.831,141.785 22.939 C 142.067 23.047,142.416 23.610,142.562 24.189 C 142.707 24.769,143.360 25.980,144.013 26.881 C 144.666 27.783,145.200 28.763,145.200 29.060 C 145.200 29.357,145.552 29.952,145.982 30.382 C 146.412 30.812,147.131 31.971,147.581 32.957 C 148.030 33.944,148.586 34.868,148.816 35.010 C 149.046 35.152,149.516 35.973,149.860 36.834 C 150.205 37.695,150.628 38.400,150.800 38.400 C 150.972 38.400,151.417 39.165,151.789 40.100 C 152.160 41.035,152.807 42.169,153.226 42.619 C 154.247 43.718,154.639 45.762,153.939 46.341 C 152.091 47.872,150.829 48.730,149.579 49.307 C 148.797 49.668,147.824 50.331,147.417 50.781 C 147.009 51.232,146.525 51.600,146.341 51.600 C 146.047 51.600,143.466 53.423,141.519 55.006 C 141.144 55.311,140.298 55.839,139.639 56.180 C 138.979 56.521,138.296 57.026,138.120 57.302 C 137.944 57.579,137.170 58.276,136.400 58.851 C 135.630 59.427,134.190 60.641,133.200 61.549 C 132.210 62.457,131.253 63.200,131.073 63.200 C 130.792 63.200,126.780 66.911,122.627 71.012 C 120.617 72.997,116.650 77.359,114.969 79.432 C 114.106 80.496,113.130 81.679,112.800 82.059 C 112.470 82.440,111.660 83.410,111.000 84.215 C 110.340 85.021,109.440 86.057,109.000 86.519 C 108.560 86.980,107.930 87.837,107.600 88.423 C 106.435 90.491,103.882 94.000,103.543 94.000 C 103.355 94.000,103.200 94.256,103.200 94.569 C 103.200 94.882,102.775 95.647,102.255 96.269 C 101.735 96.891,100.938 98.132,100.484 99.027 C 100.030 99.921,99.375 100.889,99.029 101.176 C 98.683 101.463,98.400 102.001,98.400 102.371 C 98.400 102.742,97.940 103.665,97.378 104.422 C 96.817 105.180,96.011 106.520,95.588 107.400 C 95.166 108.280,94.655 109.270,94.453 109.600 C 93.685 110.854,91.293 115.843,91.001 116.800 C 90.833 117.350,90.359 118.278,89.948 118.862 C 89.536 119.446,89.200 120.166,89.200 120.462 C 89.200 120.758,88.690 122.080,88.068 123.400 C 87.446 124.720,86.713 126.700,86.439 127.800 C 86.164 128.900,85.685 130.083,85.373 130.428 C 85.062 130.773,84.638 131.943,84.432 133.028 C 84.226 134.113,83.614 136.260,83.072 137.800 C 82.530 139.340,81.969 141.410,81.826 142.400 C 81.682 143.390,81.215 145.190,80.789 146.400 C 80.363 147.610,79.740 150.490,79.405 152.800 C 79.070 155.110,78.614 157.900,78.392 159.000 C 76.521 168.250,76.383 198.303,78.185 204.000 C 78.498 204.990,79.043 207.960,79.396 210.600 C 79.749 213.240,80.381 216.390,80.801 217.600 C 81.220 218.810,81.730 220.790,81.933 222.000 C 82.261 223.955,82.838 225.871,85.062 232.400 C 85.399 233.390,85.944 235.010,86.273 236.000 C 86.602 236.990,87.291 238.700,87.803 239.800 C 88.315 240.900,88.862 242.238,89.018 242.773 C 89.173 243.309,89.728 244.550,90.250 245.533 C 90.773 246.515,91.200 247.527,91.200 247.781 C 91.200 248.035,91.710 249.048,92.334 250.032 C 92.958 251.015,93.590 252.306,93.739 252.899 C 93.888 253.493,94.458 254.639,95.005 255.445 C 95.552 256.252,96.000 257.143,96.000 257.425 C 96.000 257.708,96.429 258.449,96.954 259.073 C 97.479 259.696,98.200 260.835,98.555 261.603 C 99.141 262.867,99.731 263.821,102.174 267.450 C 106.920 274.502,106.658 274.129,109.849 278.400 C 114.995 285.288,129.715 300.531,132.409 301.761 C 132.844 301.960,133.200 302.271,133.200 302.454 C 133.200 302.896,140.467 308.665,141.773 309.261 C 142.338 309.518,142.800 309.854,142.800 310.009 C 142.800 310.163,144.015 311.058,145.500 311.999 C 146.985 312.940,148.630 314.000,149.156 314.355 C 149.682 314.710,150.401 315.180,150.754 315.400 C 151.108 315.620,151.852 316.099,152.410 316.464 C 153.466 317.156,156.144 318.662,159.169 320.265 C 160.143 320.780,161.223 321.449,161.569 321.750 C 161.916 322.052,162.920 322.524,163.800 322.800 C 164.680 323.076,165.685 323.549,166.033 323.852 C 166.381 324.155,167.551 324.701,168.633 325.064 C 169.715 325.428,171.023 326.052,171.541 326.452 C 172.058 326.852,173.113 327.297,173.885 327.442 C 174.657 327.587,176.033 328.121,176.944 328.630 C 177.855 329.138,179.497 329.754,180.594 330.000 C 181.690 330.245,182.861 330.693,183.195 330.995 C 183.529 331.298,185.152 331.837,186.801 332.192 C 188.451 332.548,190.610 333.176,191.600 333.589 C 192.590 334.001,194.669 334.528,196.219 334.760 C 197.770 334.991,199.586 335.454,200.254 335.787 C 200.922 336.120,203.073 336.570,205.034 336.787 C 206.995 337.004,210.040 337.462,211.800 337.805 C 225.420 340.463,226.800 340.050,226.800 333.321 C 226.800 327.617,227.196 327.013,229.734 328.851 C 230.606 329.483,231.594 330.000,231.929 330.000 C 232.263 330.000,232.884 330.315,233.309 330.700 C 234.078 331.397,236.622 332.810,239.941 334.382 C 240.899 334.836,242.138 335.565,242.695 336.004 C 243.252 336.442,243.984 336.800,244.322 336.800 C 244.660 336.800,245.243 337.077,245.618 337.416 C 246.255 337.993,247.281 338.581,252.800 341.532 C 254.010 342.178,255.990 343.259,257.200 343.932 C 258.410 344.606,260.317 345.609,261.437 346.161 C 262.557 346.714,263.689 347.426,263.953 347.744 C 264.217 348.061,264.874 348.432,265.413 348.568 C 265.953 348.703,267.240 349.351,268.275 350.007 C 269.310 350.663,270.346 351.200,270.578 351.200 C 270.810 351.201,271.523 351.651,272.162 352.200 C 272.801 352.750,273.541 353.200,273.806 353.200 C 274.071 353.200,274.988 353.675,275.844 354.256 C 276.699 354.836,277.939 355.491,278.600 355.711 C 279.260 355.931,280.160 356.423,280.600 356.804 C 281.040 357.186,281.850 357.657,282.400 357.851 C 285.772 359.042,290.630 362.671,290.294 363.747 C 290.216 363.996,289.533 364.505,288.776 364.879 C 288.019 365.252,287.203 365.728,286.962 365.936 C 286.722 366.144,285.912 366.629,285.162 367.014 C 284.413 367.398,283.291 368.137,282.669 368.656 C 282.047 369.175,281.296 369.600,281.000 369.600 C 280.704 369.600,279.953 370.011,279.331 370.513 C 277.812 371.739,273.618 374.235,272.500 374.578 C 272.005 374.730,271.600 375.019,271.600 375.220 C 271.600 375.422,270.655 376.063,269.500 376.646 C 268.345 377.228,267.304 377.854,267.186 378.037 C 267.068 378.220,266.316 378.643,265.513 378.978 C 264.711 379.314,263.929 379.791,263.776 380.039 C 263.622 380.288,262.744 380.824,261.824 381.231 C 260.903 381.638,259.819 382.337,259.413 382.785 C 259.008 383.233,258.511 383.600,258.310 383.600 C 258.109 383.600,257.192 384.108,256.272 384.728 C 255.352 385.348,254.015 386.090,253.300 386.376 C 252.585 386.663,252.000 387.028,252.000 387.188 C 252.000 387.348,251.279 387.804,250.398 388.201 C 249.516 388.598,248.593 389.168,248.345 389.466 C 248.097 389.765,247.153 390.373,246.247 390.817 C 243.914 391.962,241.002 393.697,240.137 394.457 C 239.732 394.814,238.994 395.229,238.498 395.380 C 238.002 395.532,237.102 396.065,236.498 396.567 C 235.894 397.068,234.862 397.732,234.205 398.042 C 233.548 398.352,232.949 398.920,232.876 399.303 C 232.748 399.964,237.078 400.000,316.371 400.000 L 400.000 400.000 400.000 200.000 L 400.000 0.000 200.000 0.000 L 0.000 0.000 0.000 200.000 M199.600 78.239 C 200.590 78.359,206.320 78.580,212.333 78.729 C 222.637 78.984,223.299 79.046,223.850 79.800 C 224.343 80.475,224.426 83.265,224.378 97.643 C 224.322 114.703,224.443 116.400,225.710 116.400 C 225.884 116.400,226.399 117.030,226.853 117.800 C 227.717 119.264,230.788 119.828,232.387 118.817 C 232.709 118.613,233.159 118.591,233.387 118.768 C 233.614 118.945,234.250 119.206,234.800 119.348 C 235.350 119.490,236.162 120.189,236.605 120.903 C 237.213 121.882,237.743 122.232,238.765 122.330 C 239.510 122.401,240.408 122.812,240.760 123.243 C 241.331 123.941,242.069 124.047,247.600 124.225 C 252.847 124.393,253.861 124.527,254.200 125.096 C 255.823 127.826,258.234 128.966,259.565 127.635 C 260.654 126.546,261.050 126.581,262.154 127.864 C 263.421 129.337,269.622 129.470,271.411 128.063 L 272.496 127.210 273.646 128.177 C 274.617 128.994,274.994 129.088,276.067 128.781 C 277.341 128.415,278.175 128.739,278.911 129.884 C 279.759 131.205,282.110 131.255,284.556 130.004 C 285.865 129.336,287.554 128.796,288.356 128.791 C 289.150 128.786,290.585 128.426,291.544 127.991 C 293.668 127.027,293.936 127.018,294.889 127.880 C 295.540 128.469,295.811 128.492,296.920 128.048 C 300.313 126.690,300.847 126.659,301.873 127.765 C 302.401 128.334,303.053 128.800,303.323 128.800 C 303.593 128.800,304.453 129.234,305.234 129.765 C 306.015 130.296,307.423 130.937,308.363 131.190 C 309.303 131.443,310.773 132.016,311.630 132.462 C 312.487 132.909,314.263 133.372,315.577 133.491 C 318.062 133.717,319.548 134.600,319.656 135.916 C 319.687 136.292,319.755 139.390,319.807 142.800 C 320.058 159.222,320.361 162.885,321.582 164.200 C 323.218 165.963,324.685 168.761,325.000 170.721 C 325.153 171.668,325.691 172.889,326.197 173.434 C 326.702 173.980,327.227 175.019,327.363 175.743 C 327.499 176.467,327.953 177.428,328.372 177.877 C 330.187 179.826,330.177 185.534,328.352 188.600 C 327.469 190.083,327.400 190.613,327.400 195.866 C 327.400 201.269,327.354 201.594,326.410 202.866 C 325.862 203.604,325.326 204.990,325.210 205.968 C 325.010 207.652,324.915 207.764,323.200 208.325 C 322.210 208.649,320.950 209.222,320.400 209.599 C 319.850 209.975,318.872 210.411,318.227 210.568 C 317.582 210.724,316.551 211.275,315.936 211.792 C 315.322 212.309,314.257 212.856,313.569 213.007 C 312.670 213.204,312.021 213.768,311.259 215.012 C 310.677 215.964,309.814 216.923,309.343 217.143 C 308.536 217.520,303.884 221.357,301.531 223.587 C 299.653 225.366,297.829 226.682,296.800 227.000 C 296.250 227.170,295.291 227.735,294.669 228.255 C 294.047 228.775,293.379 229.200,293.183 229.200 C 292.988 229.200,291.976 229.740,290.936 230.400 C 289.895 231.060,288.751 231.600,288.394 231.600 C 287.796 231.600,284.942 233.557,282.930 235.345 C 282.468 235.755,281.622 236.511,281.049 237.023 C 280.476 237.536,279.711 238.122,279.349 238.325 C 278.256 238.936,273.200 244.124,273.200 244.634 C 273.200 244.895,272.767 245.392,272.238 245.738 C 271.608 246.151,271.183 246.914,271.009 247.949 C 270.862 248.818,270.395 249.843,269.971 250.226 C 269.527 250.628,269.199 251.450,269.198 252.162 C 269.193 254.905,267.124 260.243,265.918 260.626 C 265.191 260.857,264.527 263.235,264.984 263.974 C 265.471 264.762,266.406 264.409,267.173 263.148 L 267.934 261.897 268.365 263.448 C 269.017 265.798,268.911 268.815,268.146 269.660 C 267.378 270.508,268.151 271.063,269.580 270.689 C 270.727 270.389,271.316 272.965,270.424 274.375 C 270.187 274.750,270.258 275.234,270.630 275.764 C 273.273 279.538,267.820 285.023,264.344 282.087 C 262.582 280.599,258.413 279.091,257.698 279.684 C 256.966 280.292,254.795 280.158,253.375 279.417 C 252.729 279.081,252.019 278.804,251.799 278.802 C 251.578 278.801,250.511 278.170,249.428 277.400 C 248.003 276.386,247.036 276.000,245.927 276.000 C 244.817 276.000,244.169 275.741,243.576 275.059 C 243.066 274.472,241.901 273.920,240.479 273.593 C 237.317 272.865,236.928 272.610,236.641 271.076 C 236.352 269.538,234.307 265.357,232.694 263.007 C 231.994 261.988,231.600 260.890,231.600 259.958 C 231.600 259.157,231.255 257.714,230.833 256.751 C 230.411 255.788,229.935 254.105,229.774 253.010 C 229.534 251.375,229.190 250.754,227.841 249.522 C 223.679 245.723,222.964 244.856,222.592 243.165 C 222.457 242.550,221.227 240.911,219.860 239.523 C 217.025 236.647,215.808 234.810,215.407 232.800 C 215.253 232.030,214.729 230.770,214.242 230.000 C 213.755 229.230,213.042 227.759,212.657 226.732 C 212.273 225.704,211.697 224.647,211.379 224.383 C 211.061 224.118,210.800 223.272,210.800 222.501 C 210.800 221.189,203.571 213.200,202.383 213.200 C 202.210 213.200,201.138 212.030,200.000 210.600 L 197.931 208.000 193.396 208.000 C 190.902 208.000,187.952 207.790,186.841 207.534 C 184.719 207.044,181.371 207.486,179.202 208.543 C 178.155 209.052,176.373 212.233,175.584 215.000 C 174.800 217.751,173.984 219.110,172.829 219.588 C 172.215 219.842,171.323 220.579,170.845 221.225 C 169.613 222.891,166.362 222.651,164.384 220.749 C 163.599 219.994,156.520 215.862,154.937 215.234 C 154.242 214.959,152.659 213.758,151.419 212.567 C 150.178 211.375,149.022 210.400,148.848 210.400 C 148.443 210.400,145.600 206.284,145.600 205.697 C 145.600 205.452,145.387 204.745,145.127 204.126 C 144.867 203.507,144.441 201.740,144.181 200.200 C 143.331 195.170,140.667 189.670,138.179 187.811 C 137.288 187.145,136.041 186.240,135.409 185.800 C 134.776 185.360,133.525 184.209,132.629 183.242 C 128.658 178.957,123.155 173.618,122.015 172.945 C 121.296 172.520,120.396 171.422,119.883 170.341 C 119.332 169.183,118.196 167.836,116.897 166.802 C 115.130 165.395,114.800 164.924,114.800 163.815 C 114.800 161.560,115.053 161.509,124.881 161.771 C 133.250 161.994,137.158 162.206,151.000 163.190 C 162.009 163.973,172.197 164.127,172.702 163.518 C 173.017 163.138,173.219 158.737,173.351 149.383 C 173.455 141.912,173.740 132.740,173.982 129.000 C 174.900 114.849,175.237 106.972,175.514 93.161 C 175.719 82.959,175.938 78.756,176.285 78.338 C 176.775 77.748,194.921 77.671,199.600 78.239 M307.430 211.067 C 307.289 211.434,307.316 211.876,307.490 212.050 C 307.995 212.555,308.941 211.745,308.671 211.040 C 308.352 210.209,307.754 210.222,307.430 211.067 M283.624 230.171 C 283.305 230.555,283.346 230.823,283.778 231.181 C 284.438 231.729,285.200 231.428,285.200 230.619 C 285.200 229.855,284.137 229.553,283.624 230.171 " stroke="none" fill="#040404" fill-rule="evenodd"></path></g></svg>